<svg width="475" height="474" viewBox="0 0 475 474" fill="none" xmlns="http://www.w3.org/2000/svg">
<path d="M59.3733 375.25H415.623C419.23 375.239 422.766 374.246 425.849 372.379C428.933 370.512 431.448 367.84 433.123 364.653C434.798 361.466 435.571 357.883 435.358 354.29C435.144 350.697 433.953 347.23 431.912 344.262L253.787 87.5123C246.405 76.867 228.632 76.867 221.23 87.5123L43.1046 344.262C41.0428 347.224 39.8337 350.692 39.6087 354.291C39.3837 357.89 40.1513 361.482 41.8283 364.676C43.5052 367.87 46.0273 370.545 49.1205 372.409C52.2137 374.273 55.7598 375.256 59.3733 375.25Z" fill="#47290D"/>
</svg>
