<svg xmlns="http://www.w3.org/2000/svg" id="Layer_2" data-name="Layer 2" viewBox="0 0 64.88 64.98">
  <defs>
    <style>
        .cls-1, .cls-2 {
        fill:#391F06;
        stroke-width: 0px;
      }

      .cls-2 {
        font-family: JosefinSans-SemiBold, 'Josefin Sans';
        font-size: 8px;
        font-weight: 0;
      }
    </style>
  </defs>
  <g id="Layer_1-2" data-name="Layer 1">
    <circle class="cls-1" cx="15.09" cy="15.69" r=".54"/>
    <circle class="cls-1" cx="16.51" cy="49.32" r=".54"/>
    <circle class="cls-1" cx="48.36" cy="15.69" r=".54"/>
    <circle class="cls-1" cx="49.9" cy="48.24" r=".54"/>
    <text class="cls-2" transform="translate(24.44 13.88) rotate(-16.07)"><tspan x="0" y="0">C</tspan></text>
    <text class="cls-2" transform="translate(29.13 12.49) rotate(-2.05)"><tspan x="0" y="0">A</tspan></text>
    <text class="cls-2" transform="translate(34.03 12.3) rotate(11.6)"><tspan x="0" y="0">R</tspan></text>
    <text class="cls-2" transform="translate(38.57 13.23) rotate(23.83)"><tspan x="0" y="0">T</tspan></text>
    <text class="cls-2" transform="translate(13.88 40.51) rotate(-106.07)"><tspan x="0" y="0">C</tspan></text>
    <text class="cls-2" transform="translate(12.49 35.82) rotate(-92.05)"><tspan x="0" y="0">A</tspan></text>
    <text class="cls-2" transform="translate(12.3 30.93) rotate(-78.4)"><tspan x="0" y="0">R</tspan></text>
    <text class="cls-2" transform="translate(13.23 26.38) rotate(-66.16)"><tspan x="0" y="0">T</tspan></text>
    <text class="cls-2" transform="translate(40.45 51.1) rotate(163.93)"><tspan x="0" y="0">C</tspan></text>
    <text class="cls-2" transform="translate(35.75 52.49) rotate(177.95)"><tspan x="0" y="0">A</tspan></text>
    <text class="cls-2" transform="translate(30.86 52.69) rotate(-168.4)"><tspan x="0" y="0">R</tspan></text>
    <text class="cls-2" transform="translate(26.31 51.75) rotate(-156.16)"><tspan x="0" y="0">T</tspan></text>
    <text class="cls-2" transform="translate(51.01 24.47) rotate(73.92)"><tspan x="0" y="0">C</tspan></text>
    <text class="cls-2" transform="translate(52.39 29.16) rotate(87.94)"><tspan x="0" y="0">A</tspan></text>
    <text class="cls-2" transform="translate(52.59 34.06) rotate(101.6)"><tspan x="0" y="0">R</tspan></text>
    <text class="cls-2" transform="translate(51.66 38.61) rotate(113.84)"><tspan x="0" y="0">T</tspan></text>
  </g>
</svg>