<svg width="64" height="64" viewBox="0 0 64 64" fill="none" xmlns="http://www.w3.org/2000/svg">
<circle cx="32" cy="32" r="32" fill="#47290D"/>
<path d="M41.875 46.75C39.7937 46.75 38.125 48.4187 38.125 50.5C38.125 51.4946 38.5201 52.4484 39.2234 53.1516C39.9266 53.8549 40.8804 54.25 41.875 54.25C42.8696 54.25 43.8234 53.8549 44.5266 53.1516C45.2299 52.4484 45.625 51.4946 45.625 50.5C45.625 49.5054 45.2299 48.5516 44.5266 47.8484C43.8234 47.1451 42.8696 46.75 41.875 46.75ZM11.875 16.75V20.5H15.625L22.375 34.7313L19.825 39.325C19.5437 39.85 19.375 40.4688 19.375 41.125C19.375 42.1196 19.7701 43.0734 20.4733 43.7766C21.1766 44.4799 22.1304 44.875 23.125 44.875H45.625V41.125H23.9125C23.7882 41.125 23.669 41.0756 23.581 40.9877C23.4931 40.8998 23.4438 40.7806 23.4438 40.6562C23.4438 40.5625 23.4625 40.4875 23.5 40.4313L25.1875 37.375H39.1563C40.5625 37.375 41.8 36.5875 42.4375 35.4438L49.15 23.3125C49.2812 23.0125 49.375 22.6938 49.375 22.375C49.375 21.8777 49.1775 21.4008 48.8258 21.0492C48.4742 20.6975 47.9973 20.5 47.5 20.5H19.7688L18.0062 16.75M23.125 46.75C21.0437 46.75 19.375 48.4187 19.375 50.5C19.375 51.4946 19.7701 52.4484 20.4733 53.1516C21.1766 53.8549 22.1304 54.25 23.125 54.25C24.1196 54.25 25.0734 53.8549 25.7766 53.1516C26.4799 52.4484 26.875 51.4946 26.875 50.5C26.875 49.5054 26.4799 48.5516 25.7766 47.8484C25.0734 47.1451 24.1196 46.75 23.125 46.75Z" fill="#F8F8F8"/>
</svg>
