<svg xmlns="http://www.w3.org/2000/svg" id="Layer_2" data-name="Layer 2" viewBox="0 0 85.25 85.24">
  <defs>
    <style>
      .cls-1 {
        fill: #FFFFFF;
        stroke-width: 0px;
      }
    </style>
  </defs>
  <g id="Layer_1-2" data-name="Layer 1">
    <g>
      <path class="cls-1" d="m25.36,13.41l-3.5-8.1h.01s6.72,4.1,6.72,4.1l-.54.11,1.64-7.59h.02s3.5,8.09,3.5,8.09l-1.15.5-2.37-5.5.33.56-1.13,5.34h-.02s-4.71-2.81-4.71-2.81l-.04-.62,2.35,5.44-1.11.48Z"/>
      <path class="cls-1" d="m33.85,1.26l5.55-.81.18,1.2-4.31.63.35,2.41,3.83-.56.18,1.2-3.83.56.36,2.44,4.47-.65.17,1.2-5.71.84-1.24-8.45Z"/>
      <path class="cls-1" d="m49.61,9.79l-5.9-7.14.35.15-.56,6.09-1.26-.13.86-8.77h.06s5.82,7.15,5.82,7.15l-.28-.11.58-6.16,1.24.12-.86,8.79h-.04Z"/>
      <path class="cls-1" d="m53.63,7.55c-.13.34-.16.67-.09,1.01.07.34.21.64.43.9.22.27.5.46.85.59.37.14.72.18,1.07.13.35-.05.65-.19.92-.4.27-.21.46-.48.59-.82l1.93-5.14,1.16.43-1.94,5.18c-.22.58-.54,1.04-.98,1.37s-.93.54-1.48.61-1.12,0-1.69-.22c-.56-.21-1.02-.52-1.39-.94s-.61-.89-.71-1.43c-.1-.54-.05-1.1.17-1.68l1.94-5.18,1.17.44-1.93,5.14Z"/>
    </g>
    <g>
      <path class="cls-1" d="m13.41,59.88l-8.1,3.5h0s4.1-6.73,4.1-6.73l.11.54-7.59-1.64v-.02s8.09-3.5,8.09-3.5l.5,1.15-5.5,2.37.56-.33,5.34,1.13v.02s-2.81,4.71-2.81,4.71l-.62.04,5.44-2.35.48,1.11Z"/>
      <path class="cls-1" d="m1.26,51.4l-.81-5.55,1.2-.18.63,4.31,2.41-.35-.56-3.83,1.2-.18.56,3.83,2.44-.36-.65-4.47,1.2-.17.84,5.71-8.45,1.24Z"/>
      <path class="cls-1" d="m9.79,35.63l-7.14,5.9.15-.35,6.09.56-.13,1.26-8.77-.86v-.06s7.15-5.82,7.15-5.82l-.11.28-6.16-.58.12-1.24,8.79.86v.04Z"/>
      <path class="cls-1" d="m7.55,31.61c.34.13.67.16,1.01.09.34-.07.64-.21.9-.43.27-.22.46-.5.59-.85.14-.37.18-.72.13-1.07-.05-.35-.18-.65-.4-.92-.21-.27-.48-.46-.82-.59l-5.14-1.93.43-1.16,5.18,1.94c.58.22,1.04.54,1.37.98.34.44.54.93.61,1.48.07.55,0,1.12-.22,1.69-.21.56-.52,1.02-.94,1.39s-.89.61-1.43.71c-.54.1-1.1.05-1.68-.17l-5.18-1.94.44-1.17,5.14,1.93Z"/>
    </g>
    <g>
      <path class="cls-1" d="m59.88,71.83l3.5,8.1h-.01s-6.72-4.1-6.72-4.1l.54-.11-1.64,7.59h-.02s-3.5-8.09-3.5-8.09l1.15-.5,2.37,5.5-.33-.56,1.13-5.34h.02s4.71,2.81,4.71,2.81l.04.62-2.35-5.44,1.11-.48Z"/>
      <path class="cls-1" d="m51.4,83.98l-5.55.81-.18-1.2,4.31-.63-.35-2.41-3.83.56-.18-1.2,3.83-.56-.36-2.44-4.47.65-.17-1.2,5.71-.84,1.24,8.45Z"/>
      <path class="cls-1" d="m35.64,75.46l5.9,7.14-.35-.15.56-6.09,1.26.13-.86,8.77h-.06s-5.82-7.15-5.82-7.15l.28.11-.58,6.16-1.24-.12.86-8.79h.04Z"/>
      <path class="cls-1" d="m31.61,77.7c.13-.34.16-.67.09-1.01-.07-.34-.21-.64-.43-.9-.22-.27-.5-.46-.85-.59-.37-.14-.72-.18-1.07-.13-.35.05-.65.18-.92.4-.27.21-.46.48-.59.82l-1.93,5.14-1.16-.43,1.94-5.18c.22-.58.54-1.04.98-1.37.44-.34.93-.54,1.48-.61.55-.07,1.12,0,1.69.22.56.21,1.02.52,1.39.94s.61.89.71,1.43c.1.54.05,1.1-.17,1.68l-1.94,5.18-1.17-.44,1.93-5.14Z"/>
    </g>
    <g>
      <path class="cls-1" d="m71.84,25.36l8.1-3.5h0s-4.1,6.73-4.1,6.73l-.11-.54,7.59,1.64v.02s-8.09,3.5-8.09,3.5l-.49-1.15,5.49-2.37-.56.33-5.34-1.13v-.02s2.81-4.71,2.81-4.71l.62-.04-5.44,2.35-.48-1.11Z"/>
      <path class="cls-1" d="m83.98,33.85l.81,5.55-1.2.18-.63-4.31-2.41.35.56,3.83-1.2.18-.56-3.83-2.44.36.65,4.47-1.2.17-.84-5.71,8.45-1.24Z"/>
      <path class="cls-1" d="m75.46,49.61l7.14-5.9-.15.35-6.09-.56.13-1.26,8.77.86v.06s-7.15,5.82-7.15,5.82l.11-.28,6.16.58-.12,1.24-8.79-.86v-.04Z"/>
      <path class="cls-1" d="m77.7,53.63c-.34-.13-.67-.16-1.01-.09-.34.07-.64.21-.9.43-.27.22-.46.5-.59.85-.14.37-.18.72-.13,1.07.05.35.18.65.4.92.21.27.48.46.82.59l5.14,1.93-.43,1.16-5.18-1.94c-.58-.22-1.04-.54-1.37-.98-.34-.44-.54-.93-.61-1.48-.07-.55,0-1.12.22-1.69.21-.56.52-1.02.94-1.39s.89-.61,1.43-.71c.54-.1,1.1-.05,1.68.17l5.18,1.94-.44,1.17-5.14-1.93Z"/>
    </g>
    <circle class="cls-1" cx="14.92" cy="15.78" r=".88"/>
    <circle class="cls-1" cx="17.21" cy="70.24" r=".88"/>
    <circle class="cls-1" cx="68.79" cy="15.78" r=".88"/>
    <circle class="cls-1" cx="71.28" cy="68.49" r=".88"/>
  </g>
</svg>