<svg xmlns="http://www.w3.org/2000/svg" id="Layer_2" data-name="Layer 2" viewBox="0 0 52.64 52.64">
  <defs>
    <style>
      .cls-1 {
        fill: #FFFFFF;
        stroke-width: 0px;
      }
    </style>
  </defs>
  <g id="Layer_1-2" data-name="Layer 1">
    <g>
      <path class="cls-1" d="M15.66,8.28l-2.16-5h0s4.15,2.53,4.15,2.53l-.34.07,1.01-4.69h.01s2.16,4.99,2.16,4.99l-.71.31-1.47-3.39.2.35-.7,3.3h-.01s-2.91-1.73-2.91-1.73l-.02-.39,1.45,3.36-.69.3Z"/>
      <path class="cls-1" d="M20.9.78l3.43-.5.11.74-2.66.39.22,1.49,2.36-.35.11.74-2.36.35.22,1.51,2.76-.4.11.74-3.53.52-.76-5.22Z"/>
      <path class="cls-1" d="M30.64,6.04l-3.65-4.41.22.09-.35,3.76-.78-.08.53-5.41h.04s3.59,4.42,3.59,4.42l-.18-.07.36-3.8.77.08-.53,5.43h-.02Z"/>
      <path class="cls-1" d="M33.12,4.66c-.08.21-.1.42-.06.62.04.21.13.39.26.56.14.16.31.29.52.37.23.09.45.11.66.08.21-.03.4-.11.57-.24.16-.13.29-.3.36-.51l1.19-3.18.71.27-1.2,3.2c-.13.36-.34.64-.6.85s-.57.33-.92.37-.69,0-1.04-.13c-.34-.13-.63-.32-.86-.58s-.38-.55-.44-.88c-.06-.33-.03-.68.1-1.03l1.2-3.2.72.27-1.19,3.18Z"/>
    </g>
    <g>
      <path class="cls-1" d="M8.28,36.98l-5,2.16h0s2.53-4.16,2.53-4.16l.07.34-4.69-1.01h0s5-2.17,5-2.17l.31.71-3.39,1.47.35-.2,3.3.7h0s-1.74,2.92-1.74,2.92l-.39.02,3.36-1.45.3.69Z"/>
      <path class="cls-1" d="M.78,31.74l-.5-3.43.74-.11.39,2.66,1.49-.22-.35-2.36.74-.11.35,2.36,1.51-.22-.4-2.76.74-.11.52,3.53-5.22.76Z"/>
      <path class="cls-1" d="M6.04,22.01l-4.41,3.65.09-.22,3.76.35-.08.78-5.41-.53v-.04s4.42-3.59,4.42-3.59l-.07.18-3.8-.36.08-.77,5.43.53v.02Z"/>
      <path class="cls-1" d="M4.66,19.52c.21.08.42.1.62.06.21-.04.39-.13.56-.26.16-.14.29-.31.37-.52.09-.23.11-.45.08-.66-.03-.21-.11-.4-.24-.57-.13-.16-.3-.29-.51-.36l-3.18-1.19.27-.71,3.2,1.2c.36.13.64.34.85.6.21.27.33.57.37.92.04.34,0,.69-.14,1.04-.13.34-.32.63-.58.86s-.55.38-.88.44c-.33.06-.68.03-1.03-.1l-3.2-1.2.27-.72,3.18,1.19Z"/>
    </g>
    <g>
      <path class="cls-1" d="M36.98,44.36l2.16,5h0s-4.15-2.53-4.15-2.53l.34-.07-1.01,4.69h-.01s-2.16-4.99-2.16-4.99l.71-.31,1.47,3.39-.2-.35.7-3.3h.01s2.91,1.73,2.91,1.73l.02.39-1.45-3.36.69-.3Z"/>
      <path class="cls-1" d="M31.74,51.86l-3.43.5-.11-.74,2.66-.39-.22-1.49-2.36.35-.11-.74,2.36-.35-.22-1.51-2.76.4-.11-.74,3.53-.52.76,5.22Z"/>
      <path class="cls-1" d="M22.01,46.6l3.65,4.41-.22-.09.35-3.76.78.08-.53,5.41h-.04s-3.59-4.42-3.59-4.42l.18.07-.36,3.8-.77-.08.53-5.43h.02Z"/>
      <path class="cls-1" d="M19.52,47.98c.08-.21.1-.42.06-.62-.04-.21-.13-.39-.26-.56-.14-.16-.31-.29-.52-.37-.23-.09-.45-.11-.66-.08-.21.03-.4.11-.57.24-.16.13-.29.3-.36.51l-1.19,3.18-.71-.27,1.2-3.2c.13-.36.34-.64.6-.85.27-.21.57-.33.92-.37.34-.04.69,0,1.04.14.34.13.63.32.86.58s.38.55.44.88c.06.33.03.68-.1,1.03l-1.2,3.2-.72-.27,1.19-3.18Z"/>
    </g>
    <g>
      <path class="cls-1" d="M44.36,15.66l5-2.16h0s-2.53,4.16-2.53,4.16l-.07-.34,4.69,1.01h0s-5,2.17-5,2.17l-.3-.71,3.39-1.47-.35.2-3.3-.7h0s1.74-2.92,1.74-2.92l.39-.02-3.36,1.45-.3-.69Z"/>
      <path class="cls-1" d="M51.86,20.9l.5,3.43-.74.11-.39-2.66-1.49.22.35,2.36-.74.11-.35-2.36-1.51.22.4,2.76-.74.11-.52-3.53,5.22-.76Z"/>
      <path class="cls-1" d="M46.6,30.64l4.41-3.65-.09.22-3.76-.35.08-.78,5.41.53v.04s-4.42,3.59-4.42,3.59l.07-.18,3.8.36-.08.77-5.43-.53v-.02Z"/>
      <path class="cls-1" d="M47.98,33.12c-.21-.08-.42-.1-.62-.06-.21.04-.39.13-.56.26-.16.14-.29.31-.37.52-.09.23-.11.45-.08.66.03.21.11.4.24.57.13.16.3.29.51.36l3.18,1.19-.27.71-3.2-1.2c-.36-.13-.64-.34-.85-.6-.21-.27-.33-.57-.37-.92-.04-.34,0-.69.14-1.04.13-.34.32-.63.58-.86s.55-.38.88-.44c.33-.06.68-.03,1.03.1l3.2,1.2-.27.72-3.18-1.19Z"/>
    </g>
    <circle class="cls-1" cx="9.21" cy="9.74" r=".54"/>
    <circle class="cls-1" cx="10.63" cy="43.38" r=".54"/>
    <circle class="cls-1" cx="42.48" cy="9.74" r=".54"/>
    <circle class="cls-1" cx="44.02" cy="42.3" r=".54"/>
  </g>
</svg>