{"accessors":[{"bufferView":0,"componentType":5123,"count":3042,"max":[700],"min":[0],"type":"SCALAR"},{"bufferView":1,"componentType":5126,"count":701,"max":[3.065763473510742,4.344147682189941,4.0599164962768555],"min":[-3.9978671073913574,-3.80157732963562,-3.0037174224853516],"type":"VEC3"},{"bufferView":2,"componentType":5126,"count":701,"max":[1.0,1.0,1.0],"min":[-1.0,-1.0,-1.0],"type":"VEC3"},{"bufferView":3,"componentType":5126,"count":701,"max":[0.9772933721542358,0.999981701374054],"min":[-7.450580596923828e-09,0.2594239115715027],"type":"VEC2"},{"bufferView":4,"componentType":5123,"count":6,"max":[3],"min":[0],"type":"SCALAR"},{"bufferView":5,"componentType":5126,"count":4,"max":[-3.115044355392456,-6.504549026489258,-6.530440807342529],"min":[-3.1151561737060547,-7.604546546936035,-6.530445098876953],"type":"VEC3"},{"bufferView":6,"componentType":5126,"count":4,"max":[3.919669779861579e-06,-2.167550519516226e-06,-0.9659395217895508],"min":[-0.2587680518627167,-4.638517566490918e-06,-1.0],"type":"VEC3"},{"bufferView":7,"componentType":5126,"count":4,"max":[0,0],"min":[0,0],"type":"VEC2"},{"bufferView":8,"componentType":5123,"count":4902,"max":[1379],"min":[0],"type":"SCALAR"},{"bufferView":9,"componentType":5126,"count":1380,"max":[3.2681703567504883,4.947342872619629,2.8755621910095215],"min":[-4.207891941070557,-7.604547023773193,-6.684039115905762],"type":"VEC3"},{"bufferView":10,"componentType":5126,"count":1380,"max":[1.0,1.0,1.0],"min":[-1.0,-1.0,-1.0],"type":"VEC3"},{"bufferView":11,"componentType":5126,"count":1380,"max":[0.9647489786148071,0.6163230538368225],"min":[0,0],"type":"VEC2"},{"bufferView":12,"componentType":5123,"count":1560,"max":[469],"min":[0],"type":"SCALAR"},{"bufferView":13,"componentType":5126,"count":470,"max":[-1.1205759048461914,2.2943971157073975,2.0306968688964844],"min":[-3.1205763816833496,-1.7001898288726807,0.03069627285003662],"type":"VEC3"},{"bufferView":14,"componentType":5126,"count":470,"max":[1.0,1.0,1.0],"min":[-1.0,-1.0,-1.0],"type":"VEC3"},{"bufferView":15,"componentType":5126,"count":470,"max":[0.6913700103759766,0.4605058431625366],"min":[0,0],"type":"VEC2"},{"bufferView":16,"componentType":5123,"count":360,"max":[104],"min":[0],"type":"SCALAR"},{"bufferView":17,"componentType":5126,"count":105,"max":[-1.662660837173462,0.17375028133392334,1.4886116981506348],"min":[-2.578490734100342,-0.06421148777008057,0.572781503200531],"type":"VEC3"},{"bufferView":18,"componentType":5126,"count":105,"max":[1.0,1.3008848327444866e-05,1.0],"min":[-1.0,-1.0,-1.0],"type":"VEC3"},{"bufferView":19,"componentType":5126,"count":105,"max":[0.9494920969009399,0.1356101632118225],"min":[0.7580785155296326,0.04745966196060181],"type":"VEC2"},{"bufferView":20,"componentType":5123,"count":72,"max":[20],"min":[0],"type":"SCALAR"},{"bufferView":21,"componentType":5126,"count":21,"max":[-0.2950704097747803,-13.580941200256348,0.27448830008506775],"min":[-0.8440470695495605,-13.58094310760498,-0.27448809146881104],"type":"VEC3"},{"bufferView":22,"componentType":5126,"count":21,"max":[7.826826731616165e-06,-0.9999999403953552,1.0410359209345188e-05],"min":[-7.676682798773982e-06,-1.0,-1.2849465747422073e-05],"type":"VEC3"},{"bufferView":23,"componentType":5126,"count":21,"max":[0.5025976896286011,0.6875],"min":[0.47240206599235535,0.6875],"type":"VEC2"},{"bufferView":24,"componentType":5123,"count":72,"max":[20],"min":[0],"type":"SCALAR"},{"bufferView":25,"componentType":5126,"count":21,"max":[0.8440481424331665,-13.580941200256348,0.274488240480423],"min":[0.2950716018676758,-13.58094310760498,-0.274488240480423],"type":"VEC3"},{"bufferView":26,"componentType":5126,"count":21,"max":[7.67668734624749e-06,-0.9999999403953552,9.711826351122e-06],"min":[-6.7922692323918454e-06,-1.0,-9.989564205170609e-06],"type":"VEC3"},{"bufferView":27,"componentType":5126,"count":21,"max":[0.5299713015556335,0.6875],"min":[0.44502848386764526,0.6875],"type":"VEC2"},{"bufferView":28,"componentType":5123,"count":72,"max":[20],"min":[0],"type":"SCALAR"},{"bufferView":29,"componentType":5126,"count":21,"max":[0.27466869354248047,-13.580941200256348,-0.2948917746543884],"min":[-0.27466702461242676,-13.58094310760498,-0.8442269563674927],"type":"VEC3"},{"bufferView":30,"componentType":5126,"count":21,"max":[8.667290785524528e-06,-0.9999999403953552,1.9876461010426283e-05],"min":[-8.667264410178177e-06,-1.0,-1.0205419130215887e-05],"type":"VEC3"},{"bufferView":31,"componentType":5126,"count":21,"max":[0.46993768215179443,0.6875],"min":[0.43082720041275024,0.6875],"type":"VEC2"},{"bufferView":32,"componentType":5123,"count":72,"max":[20],"min":[0],"type":"SCALAR"},{"bufferView":33,"componentType":5126,"count":21,"max":[0.27466821670532227,-13.580941200256348,0.8442268967628479],"min":[-0.27466630935668945,-13.58094310760498,0.29489222168922424],"type":"VEC3"},{"bufferView":34,"componentType":5126,"count":21,"max":[8.262933079095092e-06,-0.9999999403953552,1.0205496437265538e-05],"min":[-8.667330803291406e-06,-1.0,-1.7429832951165736e-05],"type":"VEC3"},{"bufferView":35,"componentType":5126,"count":21,"max":[0.5441725254058838,0.6875],"min":[0.5050621032714844,0.6875],"type":"VEC2"},{"bufferView":36,"componentType":5126,"count":1,"max":[0.0],"min":[0.0],"type":"SCALAR"},{"bufferView":37,"componentType":5126,"count":1,"max":[-18.0183458102482,9.593374127591275,-4.165863797824556],"min":[-18.0183458102482,9.593374127591275,-4.165863797824556],"type":"VEC3"},{"bufferView":38,"componentType":5126,"count":1,"max":[0.0],"min":[0.0],"type":"SCALAR"},{"bufferView":39,"componentType":5126,"count":1,"max":[0.0,0.0,0.0,1.0],"min":[0.0,0.0,0.0,1.0],"type":"VEC4"},{"bufferView":40,"componentType":5126,"count":1,"max":[0.0],"min":[0.0],"type":"SCALAR"},{"bufferView":41,"componentType":5126,"count":1,"max":[0.16162489332352548,0.16162489332352548,0.16162489332352548],"min":[0.16162489332352548,0.16162489332352548,0.16162489332352548],"type":"VEC3"}],"animations":[{"channels":[{"sampler":0,"target":{"node":0,"path":"translation"}},{"sampler":1,"target":{"node":0,"path":"rotation"}},{"sampler":2,"target":{"node":0,"path":"scale"}}],"extensions":{"S8S_v3d_animation":{"auto":true,"loop":"REPEAT","offset":0.0,"repeatCount":1.0,"repeatInfinite":true}},"name":"siphon_animate","samplers":[{"input":36,"interpolation":"LINEAR","output":37},{"input":38,"interpolation":"LINEAR","output":39},{"input":40,"interpolation":"LINEAR","output":41}]}],"asset":{"copyright":null,"generator":"Verge3D for Maya","version":"2.0"},"bufferViews":[{"buffer":0,"byteLength":6084,"byteOffset":0,"target":34963},{"buffer":0,"byteLength":8412,"byteOffset":6084,"target":34962},{"buffer":0,"byteLength":8412,"byteOffset":14496,"target":34962},{"buffer":0,"byteLength":5608,"byteOffset":22908,"target":34962},{"buffer":0,"byteLength":12,"byteOffset":28516,"target":34963},{"buffer":0,"byteLength":48,"byteOffset":28528,"target":34962},{"buffer":0,"byteLength":48,"byteOffset":28576,"target":34962},{"buffer":0,"byteLength":32,"byteOffset":28624,"target":34962},{"buffer":0,"byteLength":9804,"byteOffset":28656,"target":34963},{"buffer":0,"byteLength":16560,"byteOffset":38460,"target":34962},{"buffer":0,"byteLength":16560,"byteOffset":55020,"target":34962},{"buffer":0,"byteLength":11040,"byteOffset":71580,"target":34962},{"buffer":0,"byteLength":3120,"byteOffset":82620,"target":34963},{"buffer":0,"byteLength":5640,"byteOffset":85740,"target":34962},{"buffer":0,"byteLength":5640,"byteOffset":91380,"target":34962},{"buffer":0,"byteLength":3760,"byteOffset":97020,"target":34962},{"buffer":0,"byteLength":720,"byteOffset":100780,"target":34963},{"buffer":0,"byteLength":1260,"byteOffset":101500,"target":34962},{"buffer":0,"byteLength":1260,"byteOffset":102760,"target":34962},{"buffer":0,"byteLength":840,"byteOffset":104020,"target":34962},{"buffer":0,"byteLength":144,"byteOffset":104860,"target":34963},{"buffer":0,"byteLength":252,"byteOffset":105004,"target":34962},{"buffer":0,"byteLength":252,"byteOffset":105256,"target":34962},{"buffer":0,"byteLength":168,"byteOffset":105508,"target":34962},{"buffer":0,"byteLength":144,"byteOffset":105676,"target":34963},{"buffer":0,"byteLength":252,"byteOffset":105820,"target":34962},{"buffer":0,"byteLength":252,"byteOffset":106072,"target":34962},{"buffer":0,"byteLength":168,"byteOffset":106324,"target":34962},{"buffer":0,"byteLength":144,"byteOffset":106492,"target":34963},{"buffer":0,"byteLength":252,"byteOffset":106636,"target":34962},{"buffer":0,"byteLength":252,"byteOffset":106888,"target":34962},{"buffer":0,"byteLength":168,"byteOffset":107140,"target":34962},{"buffer":0,"byteLength":144,"byteOffset":107308,"target":34963},{"buffer":0,"byteLength":252,"byteOffset":107452,"target":34962},{"buffer":0,"byteLength":252,"byteOffset":107704,"target":34962},{"buffer":0,"byteLength":168,"byteOffset":107956,"target":34962},{"buffer":0,"byteLength":4,"byteOffset":108124},{"buffer":0,"byteLength":12,"byteOffset":108128},{"buffer":0,"byteLength":4,"byteOffset":108140},{"buffer":0,"byteLength":16,"byteOffset":108144},{"buffer":0,"byteLength":4,"byteOffset":108160},{"buffer":0,"byteLength":12,"byteOffset":108164}],"buffers":[{"byteLength":108176,"uri":"siphon.bin"}],"cameras":[{"extensions":{"S8S_v3d_camera":{"controls":"ORBIT","enablePan":true,"moveSpeed":1.0,"orbitMaxDistance":1000.0,"orbitMaxPolarAngle":3.141592653589793,"orbitMaxZoom":100.0,"orbitMinDistance":0.0,"orbitMinPolarAngle":0.0,"orbitMinZoom":0.009999999776482582,"orbitTarget":[-10.602668083601591,7.211576684919136,-3.2137677184050952],"rotateSpeed":1.0,"viewportFitInitialAspect":1.5,"viewportFitType":"HORIZONTAL"}},"name":"perspShape","perspective":{"aspectRatio":1.5,"yfov":0.6605947096585076,"zfar":10000.0,"znear":0.1},"type":"perspective"}],"extensions":{"S8S_v3d_lights":{"lights":[{"color":[1,1,1],"intensity":2.5,"name":"__DEFAULT__","profile":"maya","type":"directional"}]}},"extensionsUsed":["S8S_v3d_materials","S8S_v3d_lights","S8S_v3d_camera","S8S_v3d_mesh","S8S_v3d_node","S8S_v3d_animation","S8S_v3d_scene"],"materials":[{"extensions":{"S8S_v3d_materials":{"gtaoVisible":true,"nodeGraph":{"edges":[{"fromNode":1,"fromOutput":0,"toInput":0,"toNode":0}],"nodes":[{"inputs":[[0.0,0.0,0.0,1],[0,0,0,0],[0,0,0]],"is_active_output":true,"name":"aiStandardSurface50SG","outputs":[],"type":"SHADING_ENGINE_MY"},{"inputs":[1.0,[0.0,0.0,0.0],0.7007575631141663,0.6363636255264282,1.0,[1.0,1.0,1.0],0.21212121844291687,0.0,[1.0,1.0,1.0],0.0,[0.0,0.0,0.0],0.0,0.0,[1.0,1.0,1.0],[1.0,1.0,1.0],0.0,[1.0,1.0,1.0],0.10000000149011612,0.0,[1.0,1.0,1.0],0.30000001192092896,0.0,[1.0,1.0,1.0],[1.0,1.0,1.0],[1.0,1.0,1.0],[0.0,0.0,0.0],1.5],"name":"aiStandardSurface50","outputs":[[0.0,0.0,0.0,0],[0.0,0.0,0.0]],"thinWalled":false,"type":"STANDARD_SURFACE_AR"}]},"profile":"maya"}},"name":"aiStandardSurface50"},{"alphaMode":"BLEND","extensions":{"S8S_v3d_materials":{"gtaoVisible":true,"nodeGraph":{"edges":[{"fromNode":1,"fromOutput":0,"toInput":0,"toNode":0}],"nodes":[{"inputs":[[1.7266786098480225,1.7136026620864868,1.6265313625335693,1],[0,0,0,0],[0,0,0]],"is_active_output":true,"name":"blinn1SG","outputs":[],"type":"SHADING_ENGINE_MY"},{"inputs":[[1.0,1.0,1.0],[0.0,0.0,0.0],[0.0,0.0,0.0],1.0,0.22869955003261566,[1.0,1.0,1.0],0.591928243637085,[1.0,0.9924271106719971,0.9420000314712524],0.30000001192092896,[0.5,0.5,0.5],0.3094170391559601,0.0,[0.8834080696105957,0.8834080696105957,0.8834080696105957]],"name":"siphon_glass","outputs":[[1.7266786098480225,1.7136026620864868,1.6265313625335693,0]],"type":"BLINN_MY"}]},"profile":"maya"}},"name":"siphon_glass"},{"extensions":{"S8S_v3d_materials":{"gtaoVisible":true,"nodeGraph":{"edges":[{"fromNode":1,"fromOutput":0,"toInput":0,"toNode":0}],"nodes":[{"inputs":[[0.4512999951839447,0.4512999951839447,0.4512999951839447,1],[0,0,0,0],[0,0,0]],"is_active_output":true,"name":"aiStandardSurface51SG","outputs":[],"type":"SHADING_ENGINE_MY"},{"inputs":[1.0,[0.4512999951839447,0.4512999951839447,0.4512999951839447],0.0,0.7196969985961914,1.0,[1.0,1.0,1.0],0.20000000298023224,0.0,[1.0,1.0,1.0],0.0,[0.0,0.0,0.0],0.0,0.0,[1.0,1.0,1.0],[1.0,1.0,1.0],0.0,[1.0,1.0,1.0],0.10000000149011612,0.0,[1.0,1.0,1.0],0.30000001192092896,0.0,[1.0,1.0,1.0],[1.0,1.0,1.0],[1.0,1.0,1.0],[0.0,0.0,0.0],1.5],"name":"aiStandardSurface51","outputs":[[0.4512999951839447,0.4512999951839447,0.4512999951839447,0],[0.0,0.0,0.0]],"thinWalled":false,"type":"STANDARD_SURFACE_AR"}]},"profile":"maya"}},"name":"aiStandardSurface51"},{"extensions":{"S8S_v3d_materials":{"gtaoVisible":true,"nodeGraph":{"edges":[{"fromNode":1,"fromOutput":0,"toInput":0,"toNode":0}],"nodes":[{"inputs":[[0.0,0.0,0.0,1],[0,0,0,0],[0,0,0]],"is_active_output":true,"name":"initialParticleSE","outputs":[],"type":"SHADING_ENGINE_MY"},{"inputs":[[0.6704545617103577,0.19954296946525574,0.06784208118915558],[0.0,0.0,0.0],[0.0,0.0,0.0],1.0,0.800000011920929,[1.0,1.0,1.0],0.0,[0.0,0.0,0.0]],"name":"lambert1","outputs":[[0.0,0.0,0.0,0]],"type":"LAMBERT_MY"}]},"profile":"maya"}},"name":"lambert1"},{"extensions":{"S8S_v3d_materials":{"nodeGraph":{"edges":[{"fromNode":0,"fromOutput":0,"toInput":0,"toNode":1}],"nodes":[{"inputs":[[0.10653923276464054,0.10653923276464054,0.10653923276464054],[0,0,0],[0,0,0],[0,0,0],[0,0,0],[0,0,0]],"name":"aiRaySwitchColor","outputs":[[0,0,0],0],"type":"RAY_SWITCH_AR"},{"inputs":[[0,0,0],1],"is_active_output":true,"name":"aiSkyDomeLightShapeColor","outputs":[],"type":"SKYDOME_LIGHT_AR"}]},"profile":"maya"}},"name":"Verge3D_Environment"}],"meshes":[{"extensions":{"S8S_v3d_mesh":{}},"name":"francis_bottomShape","primitives":[{"attributes":{"NORMAL":2,"POSITION":1,"TEXCOORD_0":3},"indices":0,"material":1,"mode":4},{"attributes":{"NORMAL":6,"POSITION":5,"TEXCOORD_0":7},"indices":4,"material":2,"mode":4},{"attributes":{"NORMAL":10,"POSITION":9,"TEXCOORD_0":11},"indices":8,"material":0,"mode":4}]},{"extensions":{"S8S_v3d_mesh":{}},"name":"joey_topShape","primitives":[{"attributes":{"NORMAL":14,"POSITION":13,"TEXCOORD_0":15},"indices":12,"material":1,"mode":4},{"attributes":{"NORMAL":18,"POSITION":17,"TEXCOORD_0":19},"indices":16,"material":0,"mode":4}]},{"extensions":{"S8S_v3d_mesh":{}},"name":"metalFilter2:polySurfaceShape3","primitives":[{"attributes":{"NORMAL":22,"POSITION":21,"TEXCOORD_0":23},"indices":20,"material":3,"mode":4}]},{"extensions":{"S8S_v3d_mesh":{}},"name":"metalFilter2:polySurfaceShape4","primitives":[{"attributes":{"NORMAL":26,"POSITION":25,"TEXCOORD_0":27},"indices":24,"material":3,"mode":4}]},{"extensions":{"S8S_v3d_mesh":{}},"name":"metalFilter2:polySurfaceShape5","primitives":[{"attributes":{"NORMAL":30,"POSITION":29,"TEXCOORD_0":31},"indices":28,"material":3,"mode":4}]},{"extensions":{"S8S_v3d_mesh":{}},"name":"metalFilter2:polySurfaceShape6","primitives":[{"attributes":{"NORMAL":34,"POSITION":33,"TEXCOORD_0":35},"indices":32,"material":3,"mode":4}]}],"nodes":[{"children":[1,2],"extensions":{"S8S_v3d_node":{"hidden":false,"hidpiCompositing":false}},"name":"siphon_animate","rotation":[0.0,0.0,0.0,1.0],"scale":[0.16162489332352548,0.16162489332352548,0.16162489332352548],"translation":[-18.0183458102482,9.593374127591275,-4.165863797824556]},{"extensions":{"S8S_v3d_node":{"frustumCulling":true,"groupNames":["siphon_animate"],"hidden":false,"hidpiCompositing":false,"renderOrder":0,"useCastShadows":true,"useShadows":true}},"mesh":0,"name":"francis_bottom","rotation":[0.0,-0.15515406186851372,0.0,0.9878902859557338],"scale":[1.0,1.0,1.0],"translation":[41.31697237149978,-14.155244833182326,4.665170019291813]},{"extensions":{"S8S_v3d_node":{"frustumCulling":true,"groupNames":["siphon_animate"],"hidden":false,"hidpiCompositing":false,"renderOrder":0,"useCastShadows":true,"useShadows":true}},"mesh":1,"name":"joey_top","rotation":[0.0,-0.15515406186851372,0.0,0.9878902859557338],"scale":[2.801584707851296,3.3619016575974325,2.801584707851296],"translation":[47.2273709328868,-9.72202432034992,4.086598296870326]},{"children":[4,6],"extensions":{"S8S_v3d_node":{"hidden":false,"hidpiCompositing":false}},"name":"filter","rotation":[0.0,0.0,0.0,1.0],"scale":[0.14438711324132192,0.14438711324132192,0.14438711324132192],"translation":[-16.27998117557466,10.209132599237778,-4.094346925217372]},{"children":[5],"extensions":{"S8S_v3d_node":{"groupNames":["filter"],"hidden":false,"hidpiCompositing":false}},"name":"metalFilter2:polySurface2","rotation":[0.0,0.0,0.0,1.0],"scale":[2.3102690864517923,0.0738497499533372,2.3102690864517923],"translation":[-0.9712116185692268,11.655660198392034,0.0]},{"extensions":{"S8S_v3d_node":{"groupNames":["metalFilter2:polySurface2","filter"],"hidden":true,"hidpiCompositing":false}},"name":"metalFilter2:transform16","rotation":[0.0,0.0,0.0,1.0],"scale":[1.0,1.0,1.0],"translation":[0.0,0.0,0.0]},{"children":[7],"extensions":{"S8S_v3d_node":{"groupNames":["filter"],"hidden":false,"hidpiCompositing":false}},"name":"metalFilter2:group2","rotation":[0.0,0.0,0.0,1.0],"scale":[1.0,1.0,1.0],"translation":[3.663513034021852,3.8941951435048248,0.0]},{"extensions":{"S8S_v3d_node":{"groupNames":["metalFilter2:group2","filter"],"hidden":true,"hidpiCompositing":false}},"name":"metalFilter2:transform15","rotation":[0.0,0.0,0.0,1.0],"scale":[1.0,1.0,1.0],"translation":[0.0,0.0,0.0]},{"children":[9,10,11,12,13],"extensions":{"S8S_v3d_node":{"hidden":false,"hidpiCompositing":false}},"name":"metalFilter2:pCylinder1","rotation":[0.0,0.0,0.0,1.0],"scale":[2.3102690864517923,0.0738497499533372,2.3102690864517923],"translation":[-4.650599233304196,7.756564697305758,0.0]},{"extensions":{"S8S_v3d_node":{"frustumCulling":true,"groupNames":["metalFilter2:pCylinder1"],"hidden":true,"hidpiCompositing":false,"renderOrder":0,"useCastShadows":true,"useShadows":true}},"mesh":2,"name":"metalFilter2:polySurface3","rotation":[0.0,0.0,0.0,1.0],"scale":[1.0,1.0,1.0],"translation":[0.0,0.0,0.0]},{"extensions":{"S8S_v3d_node":{"frustumCulling":true,"groupNames":["metalFilter2:pCylinder1"],"hidden":true,"hidpiCompositing":false,"renderOrder":0,"useCastShadows":true,"useShadows":true}},"mesh":3,"name":"metalFilter2:polySurface4","rotation":[0.0,0.0,0.0,1.0],"scale":[1.0,1.0,1.0],"translation":[0.0,0.0,0.0]},{"extensions":{"S8S_v3d_node":{"frustumCulling":true,"groupNames":["metalFilter2:pCylinder1"],"hidden":true,"hidpiCompositing":false,"renderOrder":0,"useCastShadows":true,"useShadows":true}},"mesh":4,"name":"metalFilter2:polySurface5","rotation":[0.0,0.0,0.0,1.0],"scale":[1.0,1.0,1.0],"translation":[0.0,0.0,0.0]},{"extensions":{"S8S_v3d_node":{"frustumCulling":true,"groupNames":["metalFilter2:pCylinder1"],"hidden":true,"hidpiCompositing":false,"renderOrder":0,"useCastShadows":true,"useShadows":true}},"mesh":5,"name":"metalFilter2:polySurface6","rotation":[0.0,0.0,0.0,1.0],"scale":[1.0,1.0,1.0],"translation":[0.0,0.0,0.0]},{"extensions":{"S8S_v3d_node":{"groupNames":["metalFilter2:pCylinder1"],"hidden":true,"hidpiCompositing":false}},"name":"metalFilter2:transform2","rotation":[0.0,0.0,0.0,1.0],"scale":[1.0,1.0,1.0],"translation":[0.0,0.0,0.0]},{"extensions":{"S8S_v3d_node":{"hidden":false,"hidpiCompositing":false}},"name":"group","rotation":[0.0,0.0,0.0,1.0],"scale":[1.0,1.0,1.0],"translation":[0.0,0.0,0.0]},{"extensions":{"S8S_v3d_node":{"hidden":false,"hidpiCompositing":false}},"name":"group1","rotation":[0.0,0.0,0.0,1.0],"scale":[1.0,1.0,1.0],"translation":[0.0,11.275595636197522,-1.695890156108315]},{"extensions":{"S8S_v3d_node":{"hidden":false,"hidpiCompositing":false}},"name":"group2","rotation":[0.0,0.0,0.0,1.0],"scale":[1.0,1.0,1.0],"translation":[0.0,0.0,0.0]},{"camera":0,"children":[18],"extensions":{"S8S_v3d_node":{"hidden":true,"hidpiCompositing":false}},"name":"persp","rotation":[-0.11091624605326367,-0.2604515894969723,-0.03013527708304645,0.9586211039639596],"scale":[1.0,1.0,1.0],"translation":[-16.256626332555477,9.832200107765429,6.423170803511806]},{"extensions":{"S8S_v3d_lights":{"light":0}},"name":"__DEFAULT_LIGHT__","rotation":[-0.13052619222005157,-0.0,-0.0,0.9914448613738104],"translation":[-16.256626332555477,9.832200107765429,6.423170803511806]}],"scene":0,"scenes":[{"extensions":{"S8S_v3d_scene":{"aaMethod":"AUTO","iblEnvironmentMode":"PMREM","physicallyCorrectLights":true,"shadowMap":{"esmDistanceScale":2.5,"renderReverseSided":false,"renderSingleSided":true,"type":"PCFPOISSON"},"unitsScaleFactor":1.0,"useHDR":false,"useOIT":false,"worldMaterial":4}},"extras":{"animFrameRate":24.0,"coordSystem":"Y_UP_RIGHT"},"name":"Scene","nodes":[0,3,8,14,15,16,17]}]}